# xmcd
#
# Track frame offsets:
#	150
#	13642
#	40480
#	57750
#	73165
#	94020
#	113692
#	119852
#	127245
#	145997
#	163212
#	180055
#	200222
#	227375
#	253305
#	277630
#
# Disc length: 4104 seconds
#
# Revision: 1
# Processed by: cddbd v1.5.1PL0 Copyright (c) Steve Scherf et al.
# Submitted via: CDex 1.50Beta5
#
DISCID=eb100610
DTITLE=薬師丸ひろ子 - ’87 薬師丸ひろ子 ファースト・ライブ・星紀行
DYEAR=1987
DGENRE=Pop
TTITLE0=星は何処へ行くのでしょう
TTITLE1=セーラー服と機関銃
TTITLE2=星紀行
TTITLE3=メイン・テーマ
TTITLE4=すこしだけやさしく
TTITLE5=元気を出して
TTITLE6=日差しはとてもオシャレさん
TTITLE7=椰子の実
TTITLE8=風と光に抱かれて
TTITLE9=日差しのSTEADY BOY
TTITLE10=ギンガムシャツに書いた勇気
TTITLE11=あなたを・もっと・知りたくて
TTITLE12=未完成
TTITLE13=Woman
TTITLE14=探偵物語
TTITLE15=夢の中へ
EXTD=
EXTT0=
EXTT1=
EXTT2=
EXTT3=
EXTT4=
EXTT5=
EXTT6=
EXTT7=
EXTT8=
EXTT9=
EXTT10=
EXTT11=
EXTT12=
EXTT13=
EXTT14=
EXTT15=
PLAYORDER=
